<svg width="48" height="48" viewBox="0 0 48 48" fill="none" xmlns="http://www.w3.org/2000/svg">
<circle cx="24" cy="24" r="24" fill="black"/>
<path fill-rule="evenodd" clip-rule="evenodd" d="M24.0029 32.0813C22.255 33.5895 19.9876 34.5 17.51 34.5C11.9816 34.5 7.5 29.9669 7.5 24.375C7.5 18.7831 11.9816 14.25 17.51 14.25C19.9876 14.25 22.255 15.1605 24.0029 16.6687C25.7509 15.1605 28.0182 14.25 30.4959 14.25C36.0242 14.25 40.5058 18.7831 40.5058 24.375C40.5058 29.9669 36.0242 34.5 30.4959 34.5C28.0182 34.5 25.7509 33.5895 24.0029 32.0813Z" fill="#ED0006"/>
<path fill-rule="evenodd" clip-rule="evenodd" d="M24 32.0813C26.1523 30.2242 27.517 27.4608 27.517 24.375C27.517 21.2892 26.1523 18.5258 24 16.6687C25.7479 15.1605 28.0153 14.25 30.4929 14.25C36.0213 14.25 40.5029 18.7831 40.5029 24.375C40.5029 29.9669 36.0213 34.5 30.4929 34.5C28.0153 34.5 25.7479 33.5895 24 32.0813Z" fill="#F9A000"/>
<path fill-rule="evenodd" clip-rule="evenodd" d="M24.0013 32.0843C26.1536 30.2272 27.5183 27.4639 27.5183 24.3781C27.5183 21.2923 26.1536 18.529 24.0013 16.6719C21.8491 18.529 20.4844 21.2923 20.4844 24.3781C20.4844 27.4639 21.8491 30.2272 24.0013 32.0843Z" fill="#FF5E00"/>
</svg>
