<?xml version="1.0" encoding="UTF-8" standalone="no"?>
<svg
   width="141"
   height="62"
   viewBox="0 0 141 62"
   fill="none"
   version="1.1"
   id="svg10"
   sodipodi:docname="MegapagosLogoWhite.svg"
   inkscape:version="1.4.2 (1:1.4.2+202505120737+ebf0e940d0)"
   xmlns:inkscape="http://www.inkscape.org/namespaces/inkscape"
   xmlns:sodipodi="http://sodipodi.sourceforge.net/DTD/sodipodi-0.dtd"
   xmlns="http://www.w3.org/2000/svg"
   xmlns:svg="http://www.w3.org/2000/svg">
  <sodipodi:namedview
     id="namedview10"
     pagecolor="#ffffff"
     bordercolor="#000000"
     borderopacity="0.25"
     inkscape:showpageshadow="2"
     inkscape:pageopacity="0.0"
     inkscape:pagecheckerboard="0"
     inkscape:deskcolor="#d1d1d1"
     showgrid="false"
     inkscape:zoom="3.9822695"
     inkscape:cx="53.863758"
     inkscape:cy="9.5422974"
     inkscape:window-width="1920"
     inkscape:window-height="1043"
     inkscape:window-x="1920"
     inkscape:window-y="0"
     inkscape:window-maximized="1"
     inkscape:current-layer="g10" />
  <g
     clip-path="url(#clip0_539_21097)"
     id="g10">
    <path
       fill-rule="evenodd"
       clip-rule="evenodd"
       d="m 78.7893,26.3039 v 5.2375 c 0,0.525 -0.1753,1.0118 -0.5242,1.4051 -0.4044,0.4574 -0.9685,0.6446 -1.569,0.6446 h -3.0773 c -0.5033,0 -0.9598,-0.1872 -1.3572,-0.4869 -0.4756,-0.3586 -0.7394,-0.8697 -0.7689,-1.4536 V 18.1937 c 0.5398,1.7638 1.4319,3.5258 2.8898,5.0955 1.2635,1.3618 2.7579,2.2766 4.405,3.0147 m 0.8158,-9.5448 c 0.2013,0.2911 0.427,0.5666 0.6769,0.823 0.5675,0.5856 1.2323,1.043 1.9751,1.3809 0.7533,0.343 1.5465,0.5041 2.3744,0.5041 0.8279,0 1.5725,-0.1559 2.2997,-0.4989 0.7064,-0.3327 1.3364,-0.7884 1.8641,-1.3653 0.545,-0.5977 0.9615,-1.2804 1.2583,-2.0323 0.3107,-0.7866 0.4565,-1.6078 0.4565,-2.4533 0,-0.8455 -0.1458,-1.6494 -0.4548,-2.4256 C 89.7567,9.94668 89.3419,9.26925 88.7969,8.67844 88.2693,8.10669 87.641,7.65796 86.9363,7.3305 86.2056,6.99092 85.435,6.84192 84.6314,6.84192 c -0.8036,0 -1.6002,0.15593 -2.3431,0.48858 C 81.5541,7.65796 80.8946,8.10149 80.327,8.66978 80.1483,8.84823 79.9817,9.03708 79.8272,9.23286 79.3638,5.60313 77.852,2.24714 74.7175,0.334386 h 2.7024 c 0.755,0 1.3746,0.616795 1.3746,1.370464 V 2.09468 C 79.1833,1.78974 79.5946,1.51253 80.0233,1.26304 80.7089,0.861087 81.4448,0.556155 82.2102,0.339584 83.078,0.0935588 83.9875,0 84.8883,0 c 1.1785,0 2.3466,0.152466 3.4817,0.476457 1.0813,0.306664 2.1174,0.746733 3.0825,1.321953 0.9546,0.56828 1.8293,1.24918 2.6051,2.04616 0.7741,0.79525 1.4406,1.68752 1.9908,2.65257 0.5624,0.98756 0.9876,2.03923 1.2809,3.13595 0.5988,2.23151 0.5988,4.75761 0,6.98741 -0.2951,1.0968 -0.7185,2.1484 -1.2809,3.136 -0.5519,0.9685 -1.2201,1.859 -1.9942,2.6612 -0.7724,0.8022 -1.6437,1.4866 -2.6017,2.0548 -0.972,0.577 -2.0134,1.0153 -3.0999,1.322 -5.1999,1.5298 -9.9764,-0.376 -13.0901,-3.5518 -1.5673,-1.6927 -2.633,-3.4478 -3.1224,-5.4056 -0.5554,-2.2246 -0.5641,-2.9194 -0.6283,-4.619 V 12.2146 12.2077 12.1869 L 71.5083,12.18 v -0.0035 -0.0104 c -0.0451,-0.447 -0.0764,-0.8957 -0.0937,-1.3497 l -0.0087,0.0139 c -0.0017,-0.0416 -0.0035,-0.0849 -0.0052,-0.1265 l -0.0174,0.0069 C 71.3504,10.3278 71.2792,9.95015 71.1681,9.57938 71.0241,9.10638 70.8036,8.66631 70.4895,8.28168 70.1771,7.90052 69.79,7.60944 69.3492,7.39114 68.8389,7.13819 68.2401,7.06022 67.676,7.06022 c -0.5207,0 -1.0327,0.08316 -1.5152,0.28241 -0.4443,0.18365 -0.8314,0.447 -1.1594,0.79871 -0.3523,0.3777 -0.6075,0.82644 -0.7897,1.30809 -0.2152,0.56657 -0.3003,1.16607 -0.3003,1.76897 v 12.3289 c 0,1.3636 -0.7758,2.3096 -2.1834,2.3096 h -2.836 c -0.6231,0 -1.2931,-0.1196 -1.7218,-0.6151 -0.3853,-0.4435 -0.4807,-1.0517 -0.4807,-1.6217 V 11.2167 c 0,-0.5441 -0.0729,-1.0777 -0.2257,-1.59921 C 56.3233,9.1393 56.1063,8.7027 55.7991,8.31113 55.4971,7.9265 55.1118,7.63543 54.6744,7.41713 54.1607,7.16071 53.5688,7.07581 52.9995,7.07581 c -0.4686,0 -0.9199,0.09183 -1.3573,0.25642 -0.4616,0.17499 -0.8747,0.43141 -1.2461,0.75714 -0.3853,0.33785 -0.6856,0.74673 -0.9147,1.20413 -0.2482,0.49378 -0.3506,1.0378 -0.3593,1.5714 v 12.9215 c 0,0.4141 -0.1197,1.4381 -0.6994,1.1435 -3.9104,-2.2783 -6.3316,-6.4798 -6.6336,-10.0211 V 2.47931 c 0,-0.75021 0.3367,-1.40512 1.024,-1.741235 0.4998,-0.244293 1.0605,-0.327456 1.6107,-0.327456 h 1.8779 c 0.6318,0 1.2063,0.235629 1.5864,0.750201 0.1944,0.26335 0.3454,0.55269 0.446,0.86109 0.3489,-0.31186 0.729,-0.58561 1.1369,-0.82297 0.6352,-0.370772 1.3329,-0.63239 2.0445,-0.817775 0.8592,-0.223501 1.7652,-0.3031994 2.6504,-0.3031994 0.8851,0 1.7373,0.0796984 2.5791,0.2789434 0.7637,0.180187 1.4961,0.459131 2.1765,0.852421 0.6491,0.3777 1.2358,0.84376 1.7547,1.38433 0.1823,0.19058 0.3558,0.38809 0.5207,0.5908 0.1684,-0.19924 0.3489,-0.39156 0.5398,-0.57348 0.5884,-0.56135 1.2601,-1.02568 1.9838,-1.39645 0.762,-0.389827 1.5725,-0.677434 2.4056,-0.871481 0.8817,-0.206176 1.7825,-0.3031999 2.6885,-0.3031999 h 0.1597 c 0.0572,0 0.1128,0.0017326 0.1701,0.0034651 0.5988,0.0155932 1.1923,0.0745008 1.7755,0.1836528 v 0.00693 l 0.3385,0.072768 c 0.3141,0.06757 0.6231,0.152466 0.9285,0.252955 0.1181,0.039849 0.2361,0.083163 0.3524,0.129943 h 0.0034 c 0.0191,0.005197 0.0365,0.012128 0.0556,0.019058 l 0.151,0.058907 0.0104,-0.005197 c 1.1143,0.462599 2.0723,1.134829 2.8742,1.973399 0.0156,0.01559 0.0312,0.03118 0.0451,0.04678 0.1909,0.20271 0.3749,0.41581 0.5485,0.63931 0.0225,0.02946 0.0434,0.05718 0.0659,0.08663 l 0.0035,0.0052 c 0.007,0.00866 0.0139,0.01733 0.0191,0.02599 0.0087,0.01386 0.0191,0.02599 0.0278,0.03812 0.0087,0.01212 0.0156,0.02252 0.0243,0.03465 0.0104,0.01386 0.0191,0.02599 0.0295,0.03985 0.0087,0.01212 0.0173,0.02425 0.026,0.03465 0.0087,0.01213 0.0174,0.02425 0.0278,0.03811 0.0087,0.01213 0.0156,0.02426 0.0243,0.03466 0.0087,0.01386 0.0191,0.02772 0.0295,0.04158 0.0069,0.01039 0.0139,0.01906 0.0208,0.02945 0.0104,0.01559 0.0208,0.02945 0.0313,0.04505 0.0069,0.01039 0.0156,0.02252 0.0225,0.03292 0.0087,0.01386 0.0191,0.02772 0.0278,0.04158 0.0087,0.01213 0.0156,0.02425 0.0243,0.03638 0.0087,0.01386 0.0173,0.02599 0.026,0.03985 0.007,0.0104 0.0139,0.02079 0.0208,0.03119 0.0105,0.01559 0.0191,0.03118 0.0296,0.04678 0.0052,0.00866 0.0104,0.01732 0.0173,0.02599 0.0104,0.01732 0.0208,0.03291 0.0313,0.05024 0.0069,0.0104 0.0121,0.02079 0.019,0.03119 0.0087,0.01559 0.0191,0.03118 0.0296,0.04678 0.0052,0.00866 0.0104,0.01905 0.0173,0.02772 0.026,0.04331 0.0521,0.08489 0.0764,0.12821 0.0156,0.02599 0.0312,0.05197 0.0451,0.07796 0.0156,0.02599 0.0295,0.05198 0.0451,0.07797 0.0104,0.02079 0.0226,0.03985 0.033,0.06064 l 0.0104,0.01906 c 0.0122,0.02079 0.0226,0.04158 0.0347,0.06237 l 0.0087,0.01732 c 0.0104,0.01906 0.0208,0.03639 0.0295,0.05545 0.0052,0.00866 0.0087,0.01559 0.0139,0.02425 0.0087,0.0156 0.0156,0.02946 0.0243,0.04505 0.0069,0.01213 0.0121,0.02426 0.0191,0.03638 0.0069,0.01386 0.0139,0.02599 0.0208,0.03985 0.007,0.01386 0.0139,0.02772 0.0208,0.03985 0.0087,0.01559 0.0157,0.03119 0.0243,0.04678 0.0053,0.0104 0.0122,0.02252 0.0174,0.03292 0.0087,0.01559 0.0156,0.03292 0.0243,0.04851 l 0.0156,0.03292 c 0.007,0.01559 0.0156,0.03119 0.0226,0.04851 0.0052,0.01213 0.0104,0.02253 0.0173,0.03465 0.007,0.0156 0.0157,0.03119 0.0226,0.04678 0.0052,0.01213 0.0104,0.02253 0.0156,0.03465 0.007,0.0156 0.0139,0.03119 0.0226,0.04678 l 0.0173,0.03639 c 0.007,0.01386 0.0122,0.02772 0.0191,0.04158 0.007,0.01386 0.0122,0.02772 0.0191,0.04158 0.007,0.01386 0.0139,0.02945 0.0191,0.04332 0.0052,0.01212 0.0104,0.02425 0.0174,0.03811 0.0069,0.0156 0.0139,0.03292 0.0208,0.04851 l 0.0156,0.03639 c 0.007,0.01559 0.0139,0.03118 0.0191,0.04678 0.0052,0.01212 0.0104,0.02425 0.0156,0.03811 0.007,0.0156 0.0139,0.03119 0.0191,0.04678 l 0.0156,0.03812 0.0174,0.04331 0.0174,0.04159 c 0.0052,0.01386 0.0104,0.02772 0.0173,0.04158 0.0052,0.01386 0.0122,0.02945 0.0174,0.04331 l 0.0156,0.04158 0.0156,0.04158 c 0.0052,0.0156 0.0122,0.02946 0.0174,0.04505 l 0.0156,0.04158 0.0173,0.04332 c 0.0053,0.01386 0.0105,0.02772 0.0157,0.04158 0.0052,0.01559 0.0104,0.02945 0.0173,0.04505 l 0.0139,0.03984 0.0174,0.04678 0.0139,0.03985 0.0156,0.04505 0.0139,0.04331 0.0156,0.04505 0.0139,0.03985 0.0156,0.04851 0.0121,0.03812 0.0157,0.04851 0.0121,0.03985 0.0156,0.04678 0.0122,0.04158 0.0139,0.04505 0.0121,0.04158 c 0.0052,0.01559 0.0087,0.03119 0.0139,0.04678 l 0.0121,0.04158 c 0.0035,0.01386 0.0087,0.02945 0.0122,0.04331 0.0052,0.0156 0.0087,0.02946 0.0139,0.04505 l 0.0121,0.04332 0.0122,0.04158 c 0.0052,0.01559 0.0087,0.03292 0.0139,0.04851 l 0.0104,0.03812 c 0.0034,0.01559 0.0087,0.03291 0.0139,0.04851 l 0.0121,0.04331 0.0122,0.04332 0.0121,0.04504 0.0122,0.04505 0.0104,0.04158 c 0.0034,0.01559 0.0086,0.03119 0.0121,0.04851 l 0.0104,0.04159 0.0122,0.04677 0.0104,0.04332 c 0.0035,0.01559 0.0069,0.03118 0.0104,0.04505 l 0.0104,0.04158 c 0.0035,0.01559 0.007,0.03292 0.0104,0.04851 0.0035,0.01213 0.0052,0.02425 0.0087,0.03812 0.0035,0.01732 0.0087,0.03465 0.0122,0.05197 l 0.0086,0.03639 c 0.0035,0.01732 0.007,0.03292 0.0105,0.05024 0.0034,0.01733 0.0069,0.03292 0.0104,0.05025 l 0.0087,0.03811 c 0.0034,0.01559 0.0069,0.03292 0.0104,0.04851 l 0.0086,0.04332 c 0.0035,0.01386 0.0053,0.02772 0.0087,0.04158 0.0035,0.01559 0.007,0.03119 0.0087,0.04678 0.0035,0.01559 0.0052,0.02945 0.0087,0.04505 0.0034,0.01559 0.0052,0.02945 0.0087,0.04504 0.0034,0.01733 0.0069,0.03292 0.0086,0.05025 0.0018,0.01386 0.0052,0.02599 0.007,0.03985 0.0034,0.01559 0.0052,0.02945 0.0087,0.04504 0.0017,0.0156 0.0052,0.02946 0.0086,0.04505 l 0.0052,0.03119 c 0.0035,0.01905 0.007,0.03985 0.0105,0.0589 0.0052,0.02946 0.0104,0.05891 0.0138,0.08663 0.0052,0.03119 0.0087,0.06064 0.0139,0.0901 v 0.00346 l 0.007,0.03812 v 0.00519 c 0.0972,0.59774 0.1596,1.20242 0.1926,1.80712 l 0.0469,0.861 0.0035,0.0607 v 3.1151 c 0.0746,0.2825 0.1683,0.5614 0.2846,0.8351 0.1822,0.428 0.4027,0.8317 0.6647,1.2094"
       fill="#023047"
       id="path1"
       sodipodi:nodetypes="cscssccccccccscccscccsccccsscccsccscccccccccccccccccccccccscccsssscsscccsccccsccscssccccscccccccssccccccccccccccccscccccccccccccccccccccccccccccccccccccccccccccccccccccccscccccccccccccccccccccccccccccccccccccccccccccccccccccccccccccccccccccccc"
       style="display:inline;fill:#ffffff;stroke:none;stroke-opacity:0.08829175;opacity:1" />
    <path
       d="M20.2881 45.4328C19.7952 44.5717 19.1478 43.8978 18.3633 43.4317C17.5753 42.9639 16.7179 42.7266 15.8171 42.7266C14.9163 42.7266 14.111 42.8981 13.4479 43.2377C12.8006 43.5703 12.2677 43.9671 11.8633 44.4176C11.6898 44.6116 11.5388 44.7901 11.4068 44.9581C11.0007 44.35 10.4904 43.8527 9.88469 43.475C9.08457 42.9778 8.2046 42.7266 7.26562 42.7266C6.12531 42.7266 5.18807 42.9882 4.4782 43.5062C4.21785 43.6951 3.98181 43.8909 3.77353 44.0918V42.9327H0.96875V56.6911H3.77353V48.548C3.77353 47.5137 4.06512 46.7409 4.66738 46.1848C5.27833 45.62 5.98473 45.3462 6.82651 45.3462C7.61969 45.3462 8.26361 45.6252 8.79298 46.1986C9.33276 46.7825 9.59484 47.5431 9.59484 48.522V56.6911H12.3996V48.548C12.3996 47.5137 12.6929 46.7409 13.2935 46.1848C13.9044 45.62 14.6108 45.3462 15.4526 45.3462C16.2458 45.3462 16.888 45.6252 17.4191 46.1986C17.9589 46.7842 18.2209 47.5431 18.2209 48.522V56.6911H21.0257V48.4718C21.0257 47.3179 20.7758 46.2957 20.2846 45.4328H20.2881Z"
       fill="#023047"
       id="path2"
       style="fill:#ffffff;stroke:none;stroke-opacity:0.08829175;opacity:1;fill-opacity:1" />
    <path
       d="M47.8503 42.9249V44.2521C47.4841 43.909 47.071 43.6162 46.6145 43.3754C45.7884 42.9405 44.7939 42.7188 43.6622 42.7188C42.331 42.7188 41.1456 43.0306 40.1406 43.6457C39.1392 44.2607 38.3529 45.1062 37.801 46.1614C37.2543 47.2078 36.9766 48.3981 36.9766 49.701C36.9766 51.0039 37.2543 52.1734 37.7993 53.2268C38.3512 54.2906 39.1374 55.1413 40.1389 55.7563C41.1421 56.3714 42.3275 56.685 43.6605 56.685C44.7973 56.685 45.7918 56.4546 46.6197 55.9989C47.0745 55.7494 47.4858 55.4531 47.8486 55.1136V55.7355C47.8486 56.9362 47.5466 57.8527 46.9512 58.4626C46.3594 59.069 45.3718 59.3757 44.0198 59.3757C43.1172 59.3757 42.3709 59.2163 41.8016 58.901C41.2497 58.596 40.8731 58.1819 40.6509 57.6344L40.5416 57.3642H37.5094L37.6916 57.9307C38.0804 59.1366 38.832 60.1276 39.9254 60.8761C41.0102 61.6194 42.423 61.9953 44.1222 61.9953C46.1719 61.9953 47.7878 61.4617 48.9247 60.41C50.0702 59.3497 50.6516 57.8198 50.6516 55.8638V42.9249H47.8468H47.8503ZM47.9527 49.701C47.9527 50.5084 47.7896 51.2569 47.4667 51.9239C47.1491 52.5788 46.6892 53.1055 46.0973 53.4901C45.5089 53.8713 44.7748 54.0653 43.9174 54.0653C43.06 54.0653 42.3084 53.8713 41.694 53.4867C41.0692 53.0986 40.6058 52.5857 40.2777 51.9222C39.948 51.2569 39.7796 50.5101 39.7796 49.7027C39.7796 48.8954 39.9462 48.1313 40.276 47.4729C40.604 46.818 41.0674 46.3086 41.694 45.9188C42.3102 45.5342 43.0582 45.3401 43.9174 45.3401C44.7765 45.3401 45.5072 45.5342 46.0956 45.9153C46.6892 46.3 47.1491 46.8232 47.4667 47.4695C47.7896 48.1278 47.9527 48.8798 47.9527 49.7027V49.701Z"
       fill="#023047"
       id="path3"
       style="fill:#ffffff;stroke:none;stroke-opacity:0.08829175;opacity:1" />
    <path
       d="m 63.2175,42.9267 v 1.3496 c -0.3645,-0.343 -0.7776,-0.6393 -1.234,-0.887 -0.8262,-0.4453 -1.8225,-0.6705 -2.9558,-0.6705 -1.3347,0 -2.5219,0.3222 -3.5251,0.9563 -0.9997,0.6307 -1.786,1.4952 -2.3362,2.566 -0.5449,1.062 -0.8226,2.261 -0.8226,3.5621 0,1.3012 0.2759,2.4776 0.8226,3.5483 0.5502,1.0812 1.3365,1.9492 2.3379,2.5816 1.005,0.6341 2.1904,0.9563 3.5251,0.9563 1.1351,0 2.1296,-0.2252 2.9558,-0.6705 0.4565,-0.246 0.8678,-0.5388 1.234,-0.8784 v 1.3428 H 66.024 V 42.9249 h -2.8048 z m 0.1024,6.88 c 0,0.8108 -0.1597,1.5697 -0.4773,2.2558 -0.3089,0.6705 -0.7654,1.2128 -1.359,1.613 -0.5867,0.3968 -1.3278,0.596 -2.1991,0.596 -0.8712,0 -1.6037,-0.2027 -2.2181,-0.6012 -0.6179,-0.4002 -1.0969,-0.9442 -1.4215,-1.6165 -0.3315,-0.6843 -0.4998,-1.4415 -0.4998,-2.2488 0,-0.8074 0.1683,-1.5836 0.4981,-2.2593 0.3246,-0.6636 0.8036,-1.2041 1.4232,-1.6061 0.6127,-0.3985 1.359,-0.6012 2.2164,-0.6012 0.8574,0 1.6107,0.201 2.1973,0.596 0.5936,0.402 1.0518,0.9408 1.3608,1.6026 0.3158,0.6775 0.4755,1.4398 0.4755,2.2662 z"
       fill="#023047"
       id="path4"
       style="opacity:1;fill:#ffffff;stroke:none;stroke-opacity:0.0882918"
       sodipodi:nodetypes="cccsccsccsccccccccccsccsccscccc" />
    <path
       d="M81.3715 46.2411C80.8213 45.1703 80.035 44.3058 79.0353 43.6751C78.0304 43.041 76.8449 42.7188 75.5102 42.7188C74.3769 42.7188 73.3823 42.9388 72.5562 43.3754C72.0997 43.6162 71.6866 43.909 71.3204 44.2521V42.9249H68.5156V61.7891H71.3204V55.318C71.6849 55.6576 72.0945 55.9539 72.5492 56.2033C73.3754 56.659 74.3716 56.8894 75.5102 56.8894C76.8449 56.8894 78.0304 56.5672 79.0353 55.9331C80.035 55.3007 80.8213 54.4327 81.3732 53.3515C81.9182 52.2808 82.1959 51.0871 82.1959 49.8032C82.1959 48.5194 81.9199 47.3031 81.3732 46.2411H81.3715ZM79.3894 49.8032C79.3894 50.6106 79.221 51.366 78.8895 52.0521C78.5632 52.7243 78.0894 53.2701 77.4784 53.6703C76.8727 54.0688 76.1229 54.2698 75.2499 54.2698C74.3769 54.2698 73.6583 54.0688 73.063 53.6721C72.4624 53.2718 72.0008 52.7295 71.6936 52.059C71.3777 51.3729 71.2163 50.6141 71.2163 49.8032C71.2163 48.9924 71.3759 48.2145 71.6936 47.537C72.0008 46.8752 72.4625 46.3364 73.0647 45.9361C73.6618 45.5394 74.3977 45.3384 75.2516 45.3384C76.1055 45.3384 76.8744 45.5394 77.4802 45.9379C78.0911 46.3398 78.5667 46.8821 78.8912 47.5457C79.2227 48.2214 79.3894 48.982 79.3894 49.805V49.8032Z"
       fill="#16DB65"
       id="path5" />
    <path
       d="M93.9614 42.9267V44.2763C93.5969 43.9333 93.1839 43.637 92.7274 43.3893C91.9012 42.944 90.905 42.7188 89.7716 42.7188C88.4369 42.7188 87.2497 43.041 86.2448 43.6751C85.2451 44.3058 84.4588 45.1703 83.9086 46.2411C83.3636 47.3031 83.0859 48.5021 83.0859 49.8032C83.0859 51.1044 83.3619 52.2808 83.9086 53.3515C84.4588 54.4327 85.2451 55.3007 86.2465 55.9331C87.2515 56.5672 88.4369 56.8894 89.7733 56.8894C90.9084 56.8894 91.9029 56.6642 92.7291 56.2189C93.1856 55.9729 93.5969 55.6801 93.9614 55.3405V56.6833H96.7662V42.9249H93.9614V42.9267ZM94.0638 49.8067C94.0638 50.6175 93.9041 51.3764 93.5865 52.0625C93.2776 52.733 92.8211 53.2753 92.2275 53.6755C91.6409 54.0723 90.8997 54.2715 90.0285 54.2715C89.1572 54.2715 88.4247 54.0688 87.8103 53.6703C87.1924 53.2701 86.7134 52.7261 86.3888 52.0538C86.0573 51.3695 85.889 50.6123 85.889 49.805C85.889 48.9976 86.0573 48.2214 86.3871 47.5457C86.7117 46.8821 87.1907 46.3416 87.8103 45.9396C88.423 45.5411 89.1693 45.3384 90.0267 45.3384C90.8841 45.3384 91.6374 45.5394 92.224 45.9344C92.8176 46.3364 93.2758 46.8752 93.5848 47.537C93.9007 48.2145 94.0603 48.9768 94.0603 49.8032L94.0638 49.8067Z"
       fill="#16DB65"
       id="path6" />
    <path
       d="M109.327 42.9249V44.2521C108.961 43.909 108.548 43.6162 108.091 43.3754C107.263 42.9405 106.27 42.7188 105.139 42.7188C103.808 42.7188 102.622 43.0306 101.617 43.6457C100.616 44.2607 99.8295 45.1062 99.2776 46.1614C98.7308 47.2078 98.4531 48.3981 98.4531 49.701C98.4531 51.0039 98.7308 52.1734 99.2758 53.2268C99.8278 54.2906 100.614 55.1413 101.615 55.7563C102.619 56.3714 103.804 56.685 105.137 56.685C106.272 56.685 107.268 56.4546 108.096 55.9989C108.551 55.7494 108.962 55.4531 109.325 55.1136V55.7355C109.325 56.9362 109.023 57.8527 108.428 58.4626C107.836 59.069 106.848 59.3757 105.496 59.3757C104.594 59.3757 103.847 59.2163 103.278 58.901C102.726 58.596 102.35 58.1819 102.127 57.6344L102.018 57.3642H98.986L99.1682 57.9307C99.557 59.1366 100.309 60.1276 101.402 60.8761C102.487 61.6194 103.9 61.9953 105.599 61.9953C107.649 61.9953 109.264 61.4617 110.401 60.41C111.547 59.3497 112.128 57.8198 112.128 55.8638V42.9249H109.323H109.327ZM109.429 49.701C109.429 50.5084 109.266 51.2569 108.943 51.9239C108.626 52.5788 108.166 53.1055 107.574 53.4901C106.986 53.8713 106.251 54.0653 105.394 54.0653C104.537 54.0653 103.785 53.8713 103.171 53.4867C102.546 53.0986 102.082 52.5857 101.754 51.9222C101.425 51.2551 101.256 50.5084 101.256 49.7027C101.256 48.8971 101.423 48.1313 101.753 47.4729C102.081 46.818 102.544 46.3086 103.171 45.9188C103.787 45.5342 104.535 45.3401 105.394 45.3401C106.253 45.3401 106.984 45.5342 107.572 45.9153C108.166 46.3 108.626 46.8232 108.943 47.4695C109.266 48.1278 109.429 48.8798 109.429 49.7027V49.701Z"
       fill="#16DB65"
       id="path7" />
    <path
       d="M126.676 46.2411C126.124 45.1686 125.329 44.3041 124.31 43.6734C123.29 43.0393 122.061 42.7188 120.659 42.7188C119.256 42.7188 118.052 43.0393 117.023 43.6717C115.995 44.3041 115.195 45.1669 114.643 46.2411C114.098 47.3031 113.82 48.5021 113.82 49.8032C113.82 51.1044 114.096 52.2808 114.643 53.3515C115.193 54.4344 115.995 55.3024 117.024 55.9348C118.054 56.5672 119.277 56.8877 120.66 56.8877C122.044 56.8877 123.292 56.5672 124.312 55.9331C125.331 55.3007 126.128 54.4327 126.68 53.3498C127.225 52.2791 127.502 51.0853 127.502 49.8015C127.502 48.5177 127.226 47.3014 126.68 46.2393L126.676 46.2411ZM124.694 49.8032C124.694 50.6123 124.534 51.3712 124.217 52.059C123.908 52.7313 123.45 53.2736 122.858 53.6738C122.271 54.0705 121.53 54.2698 120.659 54.2698C119.787 54.2698 119.067 54.0688 118.472 53.6721C117.871 53.2718 117.41 52.7295 117.101 52.059C116.785 51.3729 116.623 50.6141 116.623 49.8032C116.623 48.9924 116.783 48.2145 117.101 47.537C117.408 46.8752 117.87 46.3364 118.472 45.9361C119.069 45.5394 119.805 45.3384 120.659 45.3384C121.513 45.3384 122.269 45.5394 122.856 45.9344C123.45 46.3346 123.908 46.8752 124.217 47.537C124.533 48.2162 124.694 48.9785 124.694 49.8032Z"
       fill="#16DB65"
       id="path8" />
    <path
       d="M139.299 50.3836C138.843 49.8604 138.247 49.4515 137.53 49.1708C136.855 48.904 136.13 48.6927 135.377 48.5437C134.658 48.3998 133.965 48.2456 133.318 48.0828C132.716 47.9321 132.223 47.7311 131.851 47.485C131.562 47.291 131.424 47.0294 131.424 46.6603C131.424 46.2913 131.424 45.2362 134.064 45.2362C135.04 45.2362 135.732 45.4025 136.123 45.7282C136.513 46.0539 136.729 46.4264 136.784 46.8683L136.831 47.2477H139.662L139.61 46.7678C139.533 46.0643 139.289 45.4008 138.879 44.7926C138.468 44.1828 137.864 43.6769 137.084 43.2922C136.312 42.9128 135.314 42.7188 134.115 42.7188C132.355 42.7188 130.994 43.0739 130.069 43.7739C129.107 44.5016 128.618 45.5324 128.618 46.8388C128.618 47.7363 128.864 48.4639 129.35 48.9993C129.809 49.5052 130.404 49.8985 131.119 50.1688C131.791 50.4252 132.511 50.6349 133.263 50.7943C133.979 50.9467 134.674 51.1061 135.326 51.2673C135.925 51.418 136.414 51.6242 136.781 51.884C137.079 52.0954 137.218 52.3761 137.218 52.7694C137.218 53.0934 137.135 53.3463 136.965 53.5404C136.768 53.7639 136.531 53.9285 136.241 54.0411C135.923 54.1641 135.588 54.2525 135.243 54.2992C134.884 54.3478 134.582 54.372 134.346 54.372C133.587 54.372 132.973 54.2611 132.52 54.0411C132.081 53.8297 131.754 53.5542 131.549 53.2233C131.334 52.8751 131.202 52.5147 131.159 52.1491L131.114 51.768H128.25L128.281 52.2306C128.339 53.0587 128.606 53.8384 129.076 54.5435C129.548 55.2504 130.236 55.8256 131.121 56.2536C131.994 56.6763 133.07 56.8894 134.32 56.8894C136.003 56.8894 137.378 56.5291 138.402 55.8204C139.476 55.0772 140.021 53.9891 140.021 52.5892C140.021 51.6779 139.776 50.9363 139.294 50.3836H139.299Z"
       fill="#16DB65"
       id="path9" />
    <path
       d="M32.5867 52.8794C32.3246 53.2121 32.0087 53.5014 31.6407 53.7422C31.0957 54.0974 30.4015 54.2776 29.5788 54.2776C28.7561 54.2776 28.1052 54.1095 27.5186 53.7786C26.932 53.4477 26.4599 52.9955 26.1127 52.4324C25.8437 51.9975 25.6493 51.5228 25.5296 51.0169H36.2645V49.811C36.2645 48.5099 35.9885 47.3109 35.4418 46.2489C34.8898 45.1764 34.0949 44.3119 33.0761 43.6812C32.0555 43.0471 30.8267 42.7266 29.4243 42.7266C28.0219 42.7266 26.8174 43.0471 25.7882 43.6795C24.7607 44.3119 23.9606 45.1747 23.4086 46.2489C22.8636 47.3109 22.5859 48.5099 22.5859 49.811C22.5859 51.1122 22.8775 52.2938 23.4503 53.3663C24.0282 54.4457 24.8492 55.3137 25.8941 55.9443C26.9389 56.5767 28.1712 56.8955 29.5545 56.8955C31.1773 56.8955 32.5294 56.497 33.5742 55.7122C34.0533 55.3518 34.4715 54.9394 34.8326 54.4803L32.5884 52.876L32.5867 52.8794ZM26.7462 46.3286C27.4179 45.6667 28.2927 45.3445 29.4243 45.3445C30.556 45.3445 31.4377 45.6667 32.118 46.3303C32.696 46.8934 33.0796 47.557 33.2844 48.347H25.5747C25.7916 47.5622 26.1839 46.8847 26.7462 46.3286Z"
       fill="#023047"
       id="path10"
       style="fill:#ffffff;stroke:none;stroke-opacity:0.08829175;opacity:1" />
    <path
       fill-rule="evenodd"
       clip-rule="evenodd"
       d="m 79.261617,14.174257 c 0.08765,3.552161 0.08693,2.715547 -7.749817,-1.956157 V 12.2146 12.2077 12.1869 L 71.5083,12.18 v -0.0035 -0.0104 c -0.0451,-0.447 -0.0764,-0.8957 -0.0937,-1.3497 l -0.0087,0.0139 c -0.0017,-0.0416 -0.0035,-0.0849 -0.0052,-0.1265 l -0.0174,0.0069 C 71.3504,10.3278 71.2792,9.95015 71.1681,9.57938 71.0241,9.10638 70.8036,8.66631 70.4895,8.28168 70.1771,7.90052 69.79,7.60944 69.3492,7.39114 68.8389,7.13819 68.2401,7.06022 67.676,7.06022 c -0.5207,0 -1.0327,0.08316 -1.5152,0.28241 -0.4443,0.18365 -0.8314,0.447 -1.1594,0.79871 -0.3523,0.3777 -0.6075,0.82644 -0.7897,1.30809 -0.2152,0.56657 -0.3003,1.16607 -0.3003,1.76897 v 12.3289 c 0,1.3636 -0.7758,2.3096 -2.1834,2.3096 h -2.836 c -0.6231,0 -1.2931,-0.1196 -1.7218,-0.6151 -0.3853,-0.4435 -0.4807,-1.0517 -0.4807,-1.6217 V 11.2167 c 0,-0.5441 -0.0729,-1.0777 -0.2257,-1.59921 C 56.3233,9.1393 56.1063,8.7027 55.7991,8.31113 55.4971,7.9265 55.1118,7.63543 54.6744,7.41713 54.1607,7.16071 53.5688,7.07581 52.9995,7.07581 c -0.4686,0 -0.9199,0.09183 -1.3573,0.25642 -0.4616,0.17499 -0.8747,0.43141 -1.2461,0.75714 -0.3853,0.33785 -0.6856,0.74673 -0.9147,1.20413 -0.2482,0.49378 -0.3506,1.0378 -0.3593,1.5714 v 12.9215 c 0,0.4141 -0.1197,1.4381 -0.6994,1.1435 -3.9104,-2.2783 -6.3316,-6.4798 -6.6336,-10.0211 V 2.47931 c 0,-0.75021 0.3367,-1.40512 1.024,-1.741235 0.4998,-0.244293 1.0605,-0.327456 1.6107,-0.327456 h 1.8779 c 0.6318,0 1.2063,0.235629 1.5864,0.750201 0.1944,0.26335 0.3454,0.55269 0.446,0.86109 0.3489,-0.31186 0.729,-0.58561 1.1369,-0.82297 0.6352,-0.370772 1.3329,-0.63239 2.0445,-0.817775 0.8592,-0.223501 1.7652,-0.3031994 2.6504,-0.3031994 0.8851,0 1.7373,0.0796984 2.5791,0.2789434 0.7637,0.180187 1.4961,0.459131 2.1765,0.852421 0.6491,0.3777 1.2358,0.84376 1.7547,1.38433 0.1823,0.19058 0.3558,0.38809 0.5207,0.5908 0.1684,-0.19924 0.3489,-0.39156 0.5398,-0.57348 0.5884,-0.56135 1.2601,-1.02568 1.9838,-1.39645 0.762,-0.389827 1.5725,-0.677434 2.4056,-0.871481 0.8817,-0.206176 1.7825,-0.3031999 2.6885,-0.3031999 h 0.1597 c 0.0572,0 0.1128,0.0017326 0.1701,0.0034651 0.5988,0.0155932 1.1923,0.0745008 1.7755,0.1836528 v 0.00693 l 0.3385,0.072768 c 0.3141,0.06757 0.6231,0.152466 0.9285,0.252955 0.1181,0.039849 0.2361,0.083163 0.3524,0.129943 h 0.0034 c 0.0191,0.005197 0.0365,0.012128 0.0556,0.019058 l 0.151,0.058907 0.0104,-0.005197 c 1.1143,0.462599 2.0723,1.134829 2.8742,1.973399 0.0156,0.01559 0.0312,0.03118 0.0451,0.04678 0.1909,0.20271 0.3749,0.41581 0.5485,0.63931 0.0225,0.02946 0.0434,0.05718 0.0659,0.08663 l 0.0035,0.0052 c 0.007,0.00866 0.0139,0.01733 0.0191,0.02599 0.0087,0.01386 0.0191,0.02599 0.0278,0.03812 0.0087,0.01212 0.0156,0.02252 0.0243,0.03465 0.0104,0.01386 0.0191,0.02599 0.0295,0.03985 0.0087,0.01212 0.0173,0.02425 0.026,0.03465 0.0087,0.01213 0.0174,0.02425 0.0278,0.03811 0.0087,0.01213 0.0156,0.02426 0.0243,0.03466 0.0087,0.01386 0.0191,0.02772 0.0295,0.04158 0.0069,0.01039 0.0139,0.01906 0.0208,0.02945 0.0104,0.01559 0.0208,0.02945 0.0313,0.04505 0.0069,0.01039 0.0156,0.02252 0.0225,0.03292 0.0087,0.01386 0.0191,0.02772 0.0278,0.04158 0.0087,0.01213 0.0156,0.02425 0.0243,0.03638 0.0087,0.01386 0.0173,0.02599 0.026,0.03985 0.007,0.0104 0.0139,0.02079 0.0208,0.03119 0.0105,0.01559 0.0191,0.03118 0.0296,0.04678 0.0052,0.00866 0.0104,0.01732 0.0173,0.02599 0.0104,0.01732 0.0208,0.03291 0.0313,0.05024 0.0069,0.0104 0.0121,0.02079 0.019,0.03119 0.0087,0.01559 0.0191,0.03118 0.0296,0.04678 0.0052,0.00866 0.0104,0.01905 0.0173,0.02772 0.026,0.04331 0.0521,0.08489 0.0764,0.12821 0.0156,0.02599 0.0312,0.05197 0.0451,0.07796 0.0156,0.02599 0.0295,0.05198 0.0451,0.07797 0.0104,0.02079 0.0226,0.03985 0.033,0.06064 l 0.0104,0.01906 c 0.0122,0.02079 0.0226,0.04158 0.0347,0.06237 l 0.0087,0.01732 c 0.0104,0.01906 0.0208,0.03639 0.0295,0.05545 0.0052,0.00866 0.0087,0.01559 0.0139,0.02425 0.0087,0.0156 0.0156,0.02946 0.0243,0.04505 0.0069,0.01213 0.0121,0.02426 0.0191,0.03638 0.0069,0.01386 0.0139,0.02599 0.0208,0.03985 0.007,0.01386 0.0139,0.02772 0.0208,0.03985 0.0087,0.01559 0.0157,0.03119 0.0243,0.04678 0.0053,0.0104 0.0122,0.02252 0.0174,0.03292 0.0087,0.01559 0.0156,0.03292 0.0243,0.04851 l 0.0156,0.03292 c 0.007,0.01559 0.0156,0.03119 0.0226,0.04851 0.0052,0.01213 0.0104,0.02253 0.0173,0.03465 0.007,0.0156 0.0157,0.03119 0.0226,0.04678 0.0052,0.01213 0.0104,0.02253 0.0156,0.03465 0.007,0.0156 0.0139,0.03119 0.0226,0.04678 l 0.0173,0.03639 c 0.007,0.01386 0.0122,0.02772 0.0191,0.04158 0.007,0.01386 0.0122,0.02772 0.0191,0.04158 0.007,0.01386 0.0139,0.02945 0.0191,0.04332 0.0052,0.01212 0.0104,0.02425 0.0174,0.03811 0.0069,0.0156 0.0139,0.03292 0.0208,0.04851 l 0.0156,0.03639 c 0.007,0.01559 0.0139,0.03118 0.0191,0.04678 0.0052,0.01212 0.0104,0.02425 0.0156,0.03811 0.007,0.0156 0.0139,0.03119 0.0191,0.04678 l 0.0156,0.03812 0.0174,0.04331 0.0174,0.04159 c 0.0052,0.01386 0.0104,0.02772 0.0173,0.04158 0.0052,0.01386 0.0122,0.02945 0.0174,0.04331 l 0.0156,0.04158 0.0156,0.04158 c 0.0052,0.0156 0.0122,0.02946 0.0174,0.04505 l 0.0156,0.04158 0.0173,0.04332 c 0.0053,0.01386 0.0105,0.02772 0.0157,0.04158 0.0052,0.01559 0.0104,0.02945 0.0173,0.04505 l 0.0139,0.03984 0.0174,0.04678 0.0139,0.03985 0.0156,0.04505 0.0139,0.04331 0.0156,0.04505 0.0139,0.03985 0.0156,0.04851 0.0121,0.03812 0.0157,0.04851 0.0121,0.03985 0.0156,0.04678 0.0122,0.04158 0.0139,0.04505 0.0121,0.04158 c 0.0052,0.01559 0.0087,0.03119 0.0139,0.04678 l 0.0121,0.04158 c 0.0035,0.01386 0.0087,0.02945 0.0122,0.04331 0.0052,0.0156 0.0087,0.02946 0.0139,0.04505 l 0.0121,0.04332 0.0122,0.04158 c 0.0052,0.01559 0.0087,0.03292 0.0139,0.04851 l 0.0104,0.03812 c 0.0034,0.01559 0.0087,0.03291 0.0139,0.04851 l 0.0121,0.04331 0.0122,0.04332 0.0121,0.04504 0.0122,0.04505 0.0104,0.04158 c 0.0034,0.01559 0.0086,0.03119 0.0121,0.04851 l 0.0104,0.04159 0.0122,0.04677 0.0104,0.04332 c 0.0035,0.01559 0.0069,0.03118 0.0104,0.04505 l 0.0104,0.04158 c 0.0035,0.01559 0.007,0.03292 0.0104,0.04851 0.0035,0.01213 0.0052,0.02425 0.0087,0.03812 0.0035,0.01732 0.0087,0.03465 0.0122,0.05197 l 0.0086,0.03639 c 0.0035,0.01732 0.007,0.03292 0.0105,0.05024 0.0034,0.01733 0.0069,0.03292 0.0104,0.05025 l 0.0087,0.03811 c 0.0034,0.01559 0.0069,0.03292 0.0104,0.04851 l 0.0086,0.04332 c 0.0035,0.01386 0.0053,0.02772 0.0087,0.04158 0.0035,0.01559 0.007,0.03119 0.0087,0.04678 0.0035,0.01559 0.0052,0.02945 0.0087,0.04505 0.0034,0.01559 0.0052,0.02945 0.0087,0.04504 0.0034,0.01733 0.0069,0.03292 0.0086,0.05025 0.0018,0.01386 0.0052,0.02599 0.007,0.03985 0.0034,0.01559 0.0052,0.02945 0.0087,0.04504 0.0017,0.0156 0.0052,0.02946 0.0086,0.04505 l 0.0052,0.03119 c 0.0035,0.01905 0.007,0.03985 0.0105,0.0589 0.0052,0.02946 0.0104,0.05891 0.0138,0.08663 0.0052,0.03119 0.0087,0.06064 0.0139,0.0901 v 0.00346"
       fill="#023047"
       id="path53"
       sodipodi:nodetypes="cccccccccccccccscccsssscsscccsccccsccscssccccscccccccssccccccccccccccccscccccccccccccccccccccccccccccccccccccccccccccccccccccccscccccccccccccccccccccccccccccccccccccccccccccccccccccccccccccccc"
       inkscape:label="path11"
       style="display:inline;fill:#16db65;fill-opacity:1" />
  </g>
  <defs
     id="defs10">
    <clipPath
       id="clip0_539_21097">
      <rect
         width="139.057"
         height="62"
         fill="white"
         transform="translate(0.96875)"
         id="rect10" />
    </clipPath>
  </defs>
</svg>
