<svg width="48" height="48" viewBox="0 0 48 48" fill="none" xmlns="http://www.w3.org/2000/svg">
<circle cx="24" cy="24" r="24" fill="#0660AA"/>
<path d="M19.0331 19.3034C19.0331 19.6817 18.7269 19.9879 18.3486 19.9879C17.9703 19.9879 17.6641 19.6817 17.6641 19.3034C17.6641 18.9251 17.9703 18.6172 18.3486 18.6172C18.7269 18.6172 19.0331 18.9234 19.0331 19.3034Z" fill="#FDB718"/>
<path d="M16.8017 17.6581C17.1798 17.6581 17.4863 17.3517 17.4863 16.9736C17.4863 16.5955 17.1798 16.2891 16.8017 16.2891C16.4237 16.2891 16.1172 16.5955 16.1172 16.9736C16.1172 17.3517 16.4237 17.6581 16.8017 17.6581Z" fill="#FDB718"/>
<path d="M15.9238 19.3034C15.9238 19.6817 15.6175 19.9879 15.2392 19.9879C14.8609 19.9879 14.5547 19.6817 14.5547 19.3034C14.5547 18.9251 14.8609 18.6172 15.2392 18.6172C15.6175 18.6172 15.9238 18.9234 15.9238 19.3034Z" fill="#FDB718"/>
<path d="M18.2705 29.3222C18.6485 29.3222 18.955 29.0157 18.955 28.6377C18.955 28.2596 18.6485 27.9531 18.2705 27.9531C17.8924 27.9531 17.5859 28.2596 17.5859 28.6377C17.5859 29.0157 17.8924 29.3222 18.2705 29.3222Z" fill="#FDB718"/>
<path d="M16.7939 27.1347C17.172 27.1347 17.4785 26.8282 17.4785 26.4502C17.4785 26.0721 17.172 25.7656 16.7939 25.7656C16.4159 25.7656 16.1094 26.0721 16.1094 26.4502C16.1094 26.8282 16.4159 27.1347 16.7939 27.1347Z" fill="#FDB718"/>
<path d="M13.7698 27.0161C14.0827 27.0161 14.3364 26.7624 14.3364 26.4494C14.3364 26.1365 14.0827 25.8828 13.7698 25.8828C13.4568 25.8828 13.2031 26.1365 13.2031 26.4494C13.2031 26.7624 13.4568 27.0161 13.7698 27.0161Z" fill="#FDB718"/>
<path d="M15.852 28.6369C15.852 28.9497 15.5982 29.2036 15.2854 29.2036C14.9726 29.2036 14.7188 28.9497 14.7188 28.6369C14.7188 28.3241 14.9726 28.0703 15.2854 28.0703C15.5982 28.0703 15.852 28.3241 15.852 28.6369Z" fill="#FDB718"/>
<path d="M13.7307 31.602C14.0436 31.602 14.2973 31.3483 14.2973 31.0354C14.2973 30.7224 14.0436 30.4688 13.7307 30.4688C13.4177 30.4688 13.1641 30.7224 13.1641 31.0354C13.1641 31.3483 13.4177 31.602 13.7307 31.602Z" fill="#FDB718"/>
<path d="M12.267 29.0731C12.5094 29.0731 12.7059 28.8766 12.7059 28.6342C12.7059 28.3918 12.5094 28.1953 12.267 28.1953C12.0246 28.1953 11.8281 28.3918 11.8281 28.6342C11.8281 28.8766 12.0246 29.0731 12.267 29.0731Z" fill="#FDB718"/>
<path d="M6.86077 24.4793C7.10316 24.4793 7.29966 24.2828 7.29966 24.0405C7.29966 23.7981 7.10316 23.6016 6.86077 23.6016C6.61837 23.6016 6.42188 23.7981 6.42188 24.0405C6.42188 24.2828 6.61837 24.4793 6.86077 24.4793Z" fill="#FDB718"/>
<path d="M7.64983 22.1434C7.89222 22.1434 8.08872 21.9469 8.08872 21.7045C8.08872 21.4621 7.89222 21.2656 7.64983 21.2656C7.40744 21.2656 7.21094 21.4621 7.21094 21.7045C7.21094 21.9469 7.40744 22.1434 7.64983 22.1434Z" fill="#FDB718"/>
<path d="M9.58091 19.2983C9.58091 19.5406 9.38439 19.7372 9.14202 19.7372C8.89964 19.7372 8.70312 19.5406 8.70312 19.2983C8.70312 19.0559 8.89964 18.8594 9.14202 18.8594C9.38439 18.8594 9.58091 19.0559 9.58091 19.2983Z" fill="#FDB718"/>
<path d="M11.0887 17.0248C11.0887 17.2672 10.8922 17.4637 10.6498 17.4637C10.4075 17.4637 10.2109 17.2672 10.2109 17.0248C10.2109 16.7825 10.4075 16.5859 10.6498 16.5859C10.8922 16.5859 11.0887 16.7825 11.0887 17.0248Z" fill="#FDB718"/>
<path d="M10.6889 31.4715C10.9313 31.4715 11.1278 31.275 11.1278 31.0326C11.1278 30.7902 10.9313 30.5938 10.6889 30.5938C10.4465 30.5938 10.25 30.7902 10.25 31.0326C10.25 31.275 10.4465 31.4715 10.6889 31.4715Z" fill="#FDB718"/>
<path d="M9.18108 29.0731C9.42347 29.0731 9.61997 28.8766 9.61997 28.6342C9.61997 28.3918 9.42347 28.1953 9.18108 28.1953C8.93869 28.1953 8.74219 28.3918 8.74219 28.6342C8.74219 28.8766 8.93869 29.0731 9.18108 29.0731Z" fill="#FDB718"/>
<path d="M7.62639 26.8856C7.86878 26.8856 8.06528 26.6891 8.06528 26.4467C8.06528 26.2043 7.86878 26.0078 7.62639 26.0078C7.384 26.0078 7.1875 26.2043 7.1875 26.4467C7.1875 26.6891 7.384 26.8856 7.62639 26.8856Z" fill="#FDB718"/>
<path d="M6.79631 28.8582C6.92112 28.8582 7.0223 28.7571 7.0223 28.6322C7.0223 28.5074 6.92112 28.4062 6.79631 28.4062C6.67149 28.4062 6.57031 28.5074 6.57031 28.6322C6.57031 28.7571 6.67149 28.8582 6.79631 28.8582Z" fill="#FDB718"/>
<path d="M5.39006 26.6707C5.51487 26.6707 5.61605 26.5696 5.61605 26.4447C5.61605 26.3199 5.51487 26.2188 5.39006 26.2188C5.26524 26.2188 5.16406 26.3199 5.16406 26.4447C5.16406 26.5696 5.26524 26.6707 5.39006 26.6707Z" fill="#FDB718"/>
<path d="M4.74105 23.9994C4.74105 24.1239 4.63952 24.2254 4.51506 24.2254C4.3906 24.2254 4.28906 24.1239 4.28906 23.9994C4.28906 23.875 4.3906 23.7734 4.51506 23.7734C4.63952 23.7734 4.74105 23.875 4.74105 23.9994Z" fill="#FDB718"/>
<path d="M5.31975 21.9286C5.44456 21.9286 5.54574 21.8274 5.54574 21.7026C5.54574 21.5777 5.44456 21.4766 5.31975 21.4766C5.19493 21.4766 5.09375 21.5777 5.09375 21.7026C5.09375 21.8274 5.19493 21.9286 5.31975 21.9286Z" fill="#FDB718"/>
<path d="M6.851 19.5457C6.97581 19.5457 7.07699 19.4446 7.07699 19.3197C7.07699 19.1949 6.97581 19.0938 6.851 19.0938C6.72618 19.0938 6.625 19.1949 6.625 19.3197C6.625 19.4446 6.72618 19.5457 6.851 19.5457Z" fill="#FDB718"/>
<path d="M10.6682 27.0161C10.9811 27.0161 11.2348 26.7624 11.2348 26.4494C11.2348 26.1365 10.9811 25.8828 10.6682 25.8828C10.3553 25.8828 10.1016 26.1365 10.1016 26.4494C10.1016 26.7624 10.3553 27.0161 10.6682 27.0161Z" fill="#FDB718"/>
<path d="M9.07444 24.6176C9.38738 24.6176 9.64107 24.3639 9.64107 24.051C9.64107 23.7381 9.38738 23.4844 9.07444 23.4844C8.7615 23.4844 8.50781 23.7381 8.50781 24.051C8.50781 24.3639 8.7615 24.6176 9.07444 24.6176Z" fill="#FDB718"/>
<path d="M11.2192 21.6994C11.2192 22.0122 10.9654 22.2661 10.6526 22.2661C10.3398 22.2661 10.0859 22.0122 10.0859 21.6994C10.0859 21.3866 10.3398 21.1328 10.6526 21.1328C10.9654 21.1328 11.2192 21.3866 11.2192 21.6994Z" fill="#FDB718"/>
<path d="M12.2229 19.8676C12.5358 19.8676 12.7895 19.6139 12.7895 19.301C12.7895 18.9881 12.5358 18.7344 12.2229 18.7344C11.9099 18.7344 11.6562 18.9881 11.6562 19.301C11.6562 19.6139 11.9099 19.8676 12.2229 19.8676Z" fill="#FDB718"/>
<path d="M13.7073 17.5551C14.0202 17.5551 14.2739 17.3014 14.2739 16.9885C14.2739 16.6756 14.0202 16.4219 13.7073 16.4219C13.3943 16.4219 13.1406 16.6756 13.1406 16.9885C13.1406 17.3014 13.3943 17.5551 13.7073 17.5551Z" fill="#FDB718"/>
<path d="M12.1845 24.7363C12.5626 24.7363 12.8691 24.4298 12.8691 24.0517C12.8691 23.6737 12.5626 23.3672 12.1845 23.3672C11.8065 23.3672 11.5 23.6737 11.5 24.0517C11.5 24.4298 11.8065 24.7363 12.1845 24.7363Z" fill="#FDB718"/>
<path d="M13.708 22.3847C14.086 22.3847 14.3925 22.0782 14.3925 21.7002C14.3925 21.3221 14.086 21.0156 13.708 21.0156C13.3299 21.0156 13.0234 21.3221 13.0234 21.7002C13.0234 22.0782 13.3299 22.3847 13.708 22.3847Z" fill="#FDB718"/>
<path d="M16.7939 31.7206C17.172 31.7206 17.4785 31.4142 17.4785 31.0361C17.4785 30.658 17.172 30.3516 16.7939 30.3516C16.4159 30.3516 16.1094 30.658 16.1094 31.0361C16.1094 31.4142 16.4159 31.7206 16.7939 31.7206Z" fill="#FDB718"/>
<path d="M22.6716 23.8047H12.5312V24.2256H22.6716V23.8047Z" fill="#FDB718"/>
<path d="M17.4073 21.4922H14.2188V21.9131H17.4073V21.4922Z" fill="#FDB718"/>
<path d="M18.779 24.2025L17.0234 21.4922H17.5131L19.2687 24.2025H18.779Z" fill="#FDB718"/>
<path d="M18.9543 26.2344H17.3281V26.6553H18.9543V26.2344Z" fill="#FDB718"/>
<path d="M18.5703 26.658L20.0262 24.2031H20.4471L18.9912 26.658H18.5703Z" fill="#FDB718"/>
<path d="M34.1644 27.7477H29.8394C29.7035 27.7477 29.5938 27.638 29.5938 27.502C29.5938 27.3661 29.7035 27.2564 29.8394 27.2564H34.1415C34.3053 27.222 35.4418 26.9354 35.4926 25.6024C35.5433 24.2808 34.7851 24.1481 34.6623 24.135C34.6623 24.135 31.8897 24.135 31.8865 24.135C30.7729 23.95 30.5403 22.9477 30.5731 22.4155C30.5665 21.0317 31.7342 20.4126 32.3548 20.2784C32.3712 20.2751 32.3892 20.2734 32.4072 20.2734H36.3016C36.4375 20.2734 36.5472 20.3832 36.5472 20.5191C36.5472 20.655 36.4375 20.7647 36.3016 20.7647H32.4367C32.2484 20.8122 31.0562 21.166 31.066 22.422C31.066 22.4286 31.066 22.4335 31.066 22.44C31.0627 22.4826 31.012 23.4734 31.9487 23.6437C31.9487 23.6437 34.6901 23.6437 34.6885 23.6437C34.7016 23.6437 36.0576 23.7469 35.9871 25.6204C35.9315 27.0697 34.8015 27.6429 34.2103 27.7444C34.1972 27.746 34.1824 27.7477 34.1693 27.7477H34.1644Z" fill="white" stroke="white" stroke-width="0.5"/>
<path d="M42.3169 27.7739H38.326C38.3178 27.7739 38.308 27.7739 38.2998 27.7739C37.7741 27.7182 36.7718 27.3514 36.7506 26.3688C36.7276 25.324 37.4269 22.1502 37.4564 22.0159C37.4597 22.0045 37.4613 21.9946 37.4662 21.9832C37.4908 21.9177 38.077 20.375 39.3773 20.375H42.2481C42.2711 20.375 42.294 20.3783 42.3169 20.3848C42.3677 20.3996 43.5452 20.7517 43.5452 21.7654C43.5452 22.6169 43.2962 24.0581 43.2848 24.1187C43.2651 24.2349 43.1636 24.3217 43.0457 24.3217L37.4908 24.3676C37.3499 25.1569 37.2337 25.9496 37.2435 26.3573C37.2615 27.1188 38.2179 27.2679 38.3423 27.2842H42.3186C42.4545 27.2842 42.5642 27.394 42.5642 27.5299C42.5642 27.6658 42.4545 27.7755 42.3186 27.7755L42.3169 27.7739ZM37.9313 22.1371C37.9035 22.2632 37.7397 23.0165 37.5776 23.873L42.8311 23.8288C42.8999 23.4014 43.0506 22.3893 43.0506 21.7621C43.0506 21.1873 42.3611 20.9171 42.2072 20.8647H39.3757C38.4684 20.8647 37.987 21.9979 37.9313 22.1371Z" fill="white" stroke="white" stroke-width="0.5"/>
<path d="M22.3558 31.0008C22.3411 31.0008 22.3264 31.0008 22.3116 30.9975C22.1773 30.9729 22.0889 30.8452 22.1135 30.7125C22.1135 30.7125 22.5049 28.5492 22.8979 26.3859C23.0944 25.3034 23.2926 24.2225 23.4416 23.4103C23.5169 23.0041 23.5792 22.6651 23.625 22.4293C23.6627 22.2328 23.6856 22.105 23.7135 22.0199H23.7085C23.9853 21.26 24.85 20.4477 25.487 20.3462C25.51 20.3429 25.5312 20.3429 25.5542 20.3462C25.7163 20.3511 27.2737 20.3478 28.3022 20.3462C28.5396 20.3413 29.8137 20.8228 29.6647 21.8299C29.6647 21.8381 29.6647 21.8479 29.6614 21.8561L28.9769 26.0387C28.9769 26.0485 28.9736 26.0567 28.9703 26.0649C28.9556 26.1173 28.5953 27.3521 27.3982 27.7124C27.3769 27.7189 27.3556 27.7222 27.3343 27.7222L24.8107 27.7942C24.8009 27.7942 24.791 27.7942 24.7812 27.7942C24.7419 27.791 23.9444 27.7058 23.3024 26.8968C23.0306 28.3903 22.7587 29.8872 22.5933 30.8026C22.572 30.9222 22.4688 31.004 22.3526 31.004L22.3558 31.0008ZM23.4334 26.191C23.9329 27.1425 24.7042 27.2849 24.8189 27.3013L27.2901 27.2309C28.1499 26.9541 28.461 26.0518 28.497 25.9404L29.1767 21.789C29.2471 21.3255 28.538 20.831 28.2465 20.8342C28.0663 20.8342 27.4915 20.8375 26.9167 20.8375C26.5695 20.8375 26.2223 20.8375 25.9619 20.8375C25.7834 20.8375 25.6557 20.8375 25.5607 20.831C25.1448 20.9014 24.4045 21.563 24.1753 22.1787C24.1327 22.372 23.7986 24.193 23.4334 26.191Z" fill="white" stroke="white" stroke-width="0.5"/>
</svg>
