<svg width="48" height="48" viewBox="0 0 48 48" fill="none" xmlns="http://www.w3.org/2000/svg">
<circle cx="24" cy="24" r="24" fill="#00579F"/>
<path d="M21.4219 29.3509H18.5391L20.3422 18.2031H23.2248L21.4219 29.3509Z" fill="white"/>
<path d="M31.8742 18.4746C31.3056 18.249 30.4037 18 29.2885 18C26.4417 18 24.4369 19.5179 24.4246 21.6881C24.401 23.2892 25.86 24.1785 26.9512 24.7124C28.0665 25.2579 28.4456 25.614 28.4456 26.1003C28.4343 26.8471 27.5444 27.1914 26.7144 27.1914C25.5634 27.1914 24.9468 27.0139 24.0096 26.5984L23.63 26.4203L23.2266 28.9227C23.9027 29.2307 25.1484 29.504 26.4417 29.516C29.4665 29.516 31.4358 28.0216 31.4591 25.7089C31.4706 24.4399 30.7002 23.4675 29.0393 22.6729C28.031 22.1628 27.4135 21.8189 27.4135 21.297C27.4254 20.8226 27.9358 20.3366 29.074 20.3366C30.0112 20.3128 30.6997 20.5381 31.2214 20.7635L31.4821 20.8818L31.8742 18.4746Z" fill="white"/>
<path d="M35.7102 25.4016C35.9476 24.7612 36.8611 22.2826 36.8611 22.2826C36.8491 22.3064 37.098 21.6303 37.2404 21.2153L37.4419 22.1759C37.4419 22.1759 37.9878 24.8443 38.1063 25.4016C37.6558 25.4016 36.2796 25.4016 35.7102 25.4016ZM39.2686 18.2031H37.0388C36.3511 18.2031 35.8287 18.4046 35.532 19.1281L31.25 29.3508H34.2748C34.2748 29.3508 34.7728 27.9749 34.8799 27.6785C35.2117 27.6785 38.1542 27.6785 38.5811 27.6785C38.6639 28.0699 38.9251 29.3508 38.9251 29.3508H41.5943L39.2686 18.2031Z" fill="white"/>
<path d="M16.133 18.2031L13.3098 25.8048L13.0013 24.2631C12.4793 22.4842 10.8424 20.5514 9.01562 19.5904L11.6016 29.3391H14.6501L19.1813 18.2031H16.133Z" fill="white"/>
<path d="M10.6856 18.2031H6.04745L6 18.4284C9.61804 19.3536 12.0142 21.5838 12.9987 24.2643L11.9904 19.1403C11.8244 18.4282 11.3143 18.2266 10.6856 18.2031Z" fill="#FAA61A"/>
</svg>
